<svg xmlns="http://www.w3.org/2000/svg" viewBox="0 0 16 16" fill="currentColor">
  <path d="M13.601 2.326A7.854 7.854 0 0 0 8.016 0C3.674 0 .149 3.525.149 7.867c0 1.385.362 2.742 1.05 3.94L0 16l4.304-1.127a7.84 7.84 0 0 0 3.707.943h.003c4.341 0 7.867-3.526 7.867-7.867a7.82 7.82 0 0 0-2.28-5.623zM8.018 14.48h-.002a6.5 6.5 0 0 1-3.313-.91l-.238-.142-2.554.67.682-2.49-.156-.256a6.54 6.54 0 0 1-1.012-3.485c0-3.615 2.943-6.558 6.559-6.558a6.51 6.51 0 0 1 4.644 1.932 6.51 6.51 0 0 1 1.92 4.637c0 3.616-2.943 6.56-6.56 6.56zm3.595-4.907c-.197-.099-1.167-.576-1.348-.642-.181-.066-.313-.099-.444.099-.131.197-.509.642-.624.774-.115.131-.23.148-.427.049-.197-.099-.832-.306-1.585-.976-.586-.523-.982-1.169-1.098-1.367-.115-.197-.012-.304.087-.403.089-.089.197-.23.296-.345.099-.115.131-.197.197-.329.066-.131.033-.246-.016-.345-.05-.099-.444-1.07-.608-1.465-.16-.385-.323-.333-.444-.339l-.378-.007a.726.726 0 0 0-.525.247c-.181.197-.689.673-.689 1.64s.706 1.902.804 2.033c.099.131 1.388 2.12 3.363 2.971.47.203.836.324 1.122.414.472.15.902.129 1.242.078.379-.056 1.167-.477 1.332-.938.164-.46.164-.855.115-.938-.05-.082-.181-.131-.378-.23z"/>
</svg>
